<svg shape-rendering="geometricPrecision" aria-hidden="true" width="166" height="41" viewBox="0 0 166 41" fill="none" xmlns="http://www.w3.org/2000/svg">
<g id="15 &#194;&#183; Logo spec">
<g id="Compact">
<g id="compact-box">
<g id="Inline mention, small nav">
<g id="lockup">
<g id="logo">
<path id="shield" d="M17.1717 0.631552C16.9099 0.489849 16.2186 0.0576111 15.9864 0C12.4068 1.95444 9.14735 3.44612 5.17858 4.53056C3.4794 4.99492 2.01025 5.28366 0.311065 5.6514C-0.71401 14.9045 0.647375 25.3985 6.60651 32.8809C9.06007 35.9616 12.3852 38.6372 15.9913 40.2505C16.5954 40.0335 17.7767 39.368 18.3406 39.0357C22.2387 36.7245 25.47 33.4426 27.7186 29.5105L29.3185 26.1826C29.8236 24.9988 30.3219 23.344 30.6565 22.1043C32.1329 16.6343 32.2384 11.2595 31.709 5.65928C31.2431 5.55888 30.7754 5.46728 30.3083 5.37234C25.7102 4.4376 21.2974 2.86493 17.1717 0.631552Z" fill="#0F283D"/>
<path id="foot" d="M13.69 5.16356C13.8658 5.13696 14.1015 5.14105 14.3209 5.14489H14.3217C14.4311 5.14682 14.5364 5.14868 14.628 5.14657C16.2443 5.10924 17.5474 5.49664 19.06 5.97911C18.615 7.13176 18.0761 8.33527 17.5853 9.47298C17.5642 9.52191 17.5432 9.57053 17.5223 9.61884L17.5221 9.61927C16.7026 11.517 16.0699 12.9823 16.4965 15.1342C16.6389 15.8287 16.852 16.5068 17.1325 17.1579C17.7027 18.5102 18.4986 19.7969 19.1966 21.0926C19.7153 22.041 20.1638 23.0537 20.7787 23.9396C21.5726 25.0835 22.3217 25.1844 23.6045 25.3914C23.9581 25.4484 24.3996 25.6425 24.7765 25.6941C24.9477 25.7176 25.1231 25.7269 25.2989 25.7361C25.7534 25.7601 26.2094 25.7842 26.5964 26.0543C26.8126 26.2072 26.9457 26.4184 26.9906 26.6768C27.0695 27.1312 27.0018 27.6632 26.709 28.0325C25.9316 29.013 24.5526 29.1278 23.3989 28.9629C22.9996 28.9058 22.5462 28.8253 22.16 28.7951C21.9657 28.78 21.5464 28.85 21.2736 28.8955C21.2249 28.9037 21.1808 28.911 21.1435 28.917C20.0489 29.0661 19.0038 29.0529 17.9597 28.6671C16.093 27.9774 15.0995 26.2322 13.7846 24.873C13.0656 24.1297 12.2112 23.506 11.3239 22.9795C10.7234 22.6273 10.1039 22.3084 9.46832 22.0242C7.54157 21.1497 5.0887 20.4126 4.91055 17.9097C4.78535 16.1502 5.76337 15.119 6.78788 14.0388C7.27069 13.5297 7.76392 13.0096 8.15678 12.3974C9.12208 10.8931 9.69688 9.03839 10.1129 7.31098C10.2081 6.91571 10.3572 6.31932 10.3698 5.91542C11.5948 5.37385 12.3782 5.23835 13.69 5.16356Z" fill="white"/>
<path id="ankle" d="M11.8689 8.7998C11.9582 9.23694 11.2786 11.0456 11.0777 11.5094C10.9438 11.8188 10.773 12.1295 10.603 12.4385C9.932 13.659 9.27453 14.8548 10.9519 15.8469C10.6607 15.8102 10.5235 15.7884 10.2431 15.7054C8.442 14.9289 9.16422 13.3692 10.0756 12.2252C10.8944 11.1974 11.3737 9.99612 11.8689 8.7998Z" fill="#0F283D"/>
<path id="toenail" d="M23.1014 26.0628C23.9025 25.9921 24.8251 26.0068 25.273 26.7992C25.0623 26.7248 24.8192 26.5389 24.5511 26.4552C24.1281 26.323 23.484 26.2487 23.1014 26.0628Z" fill="#0F283D"/>
</g>
<path id="Men&#39;s Sole Revival" d="M46.36 25.2752C45.95 24.3352 45.54 23.3952 45.13 22.4552C44.72 21.5152 44.315 20.5702 43.915 19.6202C43.795 19.3402 43.67 19.0352 43.54 18.7052C43.41 18.3752 43.28 18.0252 43.15 17.6552C43.02 17.2852 42.895 16.9102 42.775 16.5302C42.775 16.7902 42.775 17.0402 42.775 17.2802C42.775 17.5202 42.775 17.7502 42.775 17.9702C42.765 18.2802 42.755 18.6452 42.745 19.0652C42.735 19.4752 42.72 19.9102 42.7 20.3702C42.69 20.8302 42.68 21.2902 42.67 21.7502C42.67 22.2002 42.665 22.6352 42.655 23.0552C42.655 23.2952 42.65 23.5302 42.64 23.7602C42.63 23.9902 42.615 24.1902 42.595 24.3602C42.775 24.3402 42.965 24.3302 43.165 24.3302C43.375 24.3202 43.56 24.3102 43.72 24.3002V25.1252H40.675V24.4652C40.955 24.4552 41.17 24.4002 41.32 24.3002C41.47 24.2002 41.57 24.0502 41.62 23.8502C41.68 23.6502 41.715 23.4052 41.725 23.1152L41.935 16.6352C41.945 16.4152 41.955 16.1952 41.965 15.9752C41.975 15.7552 41.985 15.5602 41.995 15.3902C41.815 15.4002 41.625 15.4102 41.425 15.4202C41.225 15.4202 41.05 15.4252 40.9 15.4352V14.6252H43.525L46 20.5352C46.12 20.8052 46.24 21.0952 46.36 21.4052C46.48 21.7052 46.6 22.0052 46.72 22.3052C46.85 22.5952 46.965 22.8702 47.065 23.1302H47.095C47.205 22.8302 47.33 22.5002 47.47 22.1402C47.61 21.7802 47.73 21.4602 47.83 21.1802C48.26 20.1002 48.695 19.0202 49.135 17.9402C49.585 16.8602 50.025 15.7552 50.455 14.6252H53.095V15.2852C52.855 15.2852 52.65 15.3302 52.48 15.4202C52.32 15.5002 52.2 15.6502 52.12 15.8702C52.05 16.0902 52.025 16.4052 52.045 16.8152L52.375 23.2802C52.395 23.4802 52.4 23.6752 52.39 23.8652C52.39 24.0552 52.385 24.2152 52.375 24.3452C52.555 24.3352 52.745 24.3302 52.945 24.3302C53.155 24.3202 53.335 24.3102 53.485 24.3002V25.1252H49.855V24.4652C50.145 24.4552 50.365 24.3952 50.515 24.2852C50.675 24.1752 50.78 24.0052 50.83 23.7752C50.88 23.5352 50.895 23.2252 50.875 22.8452L50.635 18.4802C50.625 18.3302 50.615 18.1552 50.605 17.9552C50.595 17.7452 50.58 17.5302 50.56 17.3102C50.55 17.0802 50.54 16.8602 50.53 16.6502C50.5 16.7202 50.47 16.7952 50.44 16.8752C50.41 16.9452 50.38 17.0252 50.35 17.1152L47.125 25.2752H46.36ZM57.9524 25.3652C57.2524 25.3652 56.6224 25.2052 56.0624 24.8852C55.5124 24.5552 55.0774 24.0952 54.7574 23.5052C54.4374 22.9052 54.2774 22.2002 54.2774 21.3902C54.2774 20.6902 54.4324 20.0352 54.7424 19.4252C55.0624 18.8152 55.5074 18.3252 56.0774 17.9552C56.6474 17.5752 57.3074 17.3852 58.0574 17.3852C58.4774 17.3852 58.8724 17.4502 59.2424 17.5802C59.6224 17.7102 59.9574 17.9152 60.2474 18.1952C60.5474 18.4652 60.7824 18.8202 60.9524 19.2602C61.1224 19.6902 61.2074 20.2152 61.2074 20.8352L56.0474 20.9252C56.0474 21.6052 56.1224 22.2102 56.2724 22.7402C56.4324 23.2702 56.6874 23.6802 57.0374 23.9702C57.3874 24.2602 57.8424 24.4052 58.4024 24.4052C58.6724 24.4052 58.9574 24.3602 59.2574 24.2702C59.5674 24.1702 59.8574 24.0302 60.1274 23.8502C60.4074 23.6702 60.6424 23.4552 60.8324 23.2052L61.2974 23.6102C60.9974 24.0602 60.6524 24.4152 60.2624 24.6752C59.8724 24.9252 59.4724 25.1002 59.0624 25.2002C58.6624 25.3102 58.2924 25.3652 57.9524 25.3652ZM56.1074 20.1452H59.5724C59.5724 19.7652 59.5174 19.4252 59.4074 19.1252C59.3074 18.8152 59.1474 18.5702 58.9274 18.3902C58.7074 18.2102 58.4274 18.1202 58.0874 18.1202C57.5574 18.1202 57.1224 18.2902 56.7824 18.6302C56.4424 18.9602 56.2174 19.4652 56.1074 20.1452ZM62.3177 25.1252V24.4952C62.6177 24.4952 62.8277 24.4252 62.9477 24.2852C63.0677 24.1452 63.1377 23.9502 63.1577 23.7002C63.1877 23.4502 63.2027 23.1602 63.2027 22.8302L63.2177 19.7102C63.2177 19.5502 63.2177 19.3802 63.2177 19.2002C63.2277 19.0102 63.2477 18.8252 63.2777 18.6452C63.0977 18.6552 62.9127 18.6652 62.7227 18.6752C62.5427 18.6752 62.3727 18.6802 62.2127 18.6902V17.8952C62.6627 17.8952 63.0127 17.8752 63.2627 17.8352C63.5227 17.7852 63.7177 17.7302 63.8477 17.6702C63.9877 17.6102 64.0927 17.5452 64.1627 17.4752H64.7027C64.7127 17.5652 64.7177 17.6502 64.7177 17.7302C64.7277 17.8102 64.7327 17.8952 64.7327 17.9852C64.7427 18.0752 64.7527 18.1902 64.7627 18.3302C64.9827 18.1502 65.2227 17.9902 65.4827 17.8502C65.7427 17.7102 66.0127 17.6002 66.2927 17.5202C66.5827 17.4302 66.8577 17.3852 67.1177 17.3852C68.0077 17.3852 68.6477 17.6552 69.0377 18.1952C69.4377 18.7352 69.6377 19.5802 69.6377 20.7302V23.2652C69.6377 23.4452 69.6327 23.6302 69.6227 23.8202C69.6127 24.0002 69.5977 24.1852 69.5777 24.3752C69.7377 24.3652 69.8977 24.3602 70.0577 24.3602C70.2277 24.3502 70.3827 24.3402 70.5227 24.3302V25.1252H67.1777V24.4952C67.4777 24.4952 67.6877 24.4252 67.8077 24.2852C67.9277 24.1452 67.9977 23.9502 68.0177 23.7002C68.0477 23.4502 68.0627 23.1602 68.0627 22.8302V20.7302C68.0527 19.9402 67.9227 19.3452 67.6727 18.9452C67.4327 18.5452 67.0427 18.3502 66.5027 18.3602C66.1827 18.3602 65.8677 18.4402 65.5577 18.6002C65.2477 18.7602 64.9877 18.9552 64.7777 19.1852C64.7777 19.2852 64.7777 19.3952 64.7777 19.5152C64.7777 19.6252 64.7777 19.7402 64.7777 19.8602V23.2652C64.7777 23.4452 64.7727 23.6302 64.7627 23.8202C64.7527 24.0002 64.7377 24.1852 64.7177 24.3752C64.8777 24.3652 65.0377 24.3602 65.1977 24.3602C65.3677 24.3502 65.5227 24.3402 65.6627 24.3302V25.1252H62.3177ZM71.5064 17.7602L71.3564 14.3852H72.7214L72.5864 17.7602H71.5064ZM77.1804 25.3652C76.7104 25.3652 76.2754 25.3002 75.8754 25.1702C75.4754 25.0502 75.1554 24.9052 74.9154 24.7352L74.9604 25.2302H74.1654L74.0904 22.6502H74.7204C74.7404 23.0202 74.8554 23.3552 75.0654 23.6552C75.2754 23.9552 75.5454 24.1902 75.8754 24.3602C76.2154 24.5302 76.5804 24.6152 76.9704 24.6152C77.2004 24.6152 77.4254 24.5802 77.6454 24.5102C77.8654 24.4302 78.0504 24.3152 78.2004 24.1652C78.3504 24.0052 78.4254 23.8102 78.4254 23.5802C78.4254 23.3302 78.3454 23.1252 78.1854 22.9652C78.0354 22.7952 77.8254 22.6452 77.5554 22.5152C77.2954 22.3852 76.9954 22.2552 76.6554 22.1252C76.3554 22.0052 76.0504 21.8802 75.7404 21.7502C75.4404 21.6202 75.1604 21.4652 74.9004 21.2852C74.6404 21.1052 74.4354 20.8852 74.2854 20.6252C74.1354 20.3552 74.0604 20.0252 74.0604 19.6352C74.0604 19.4052 74.1054 19.1602 74.1954 18.9002C74.2854 18.6302 74.4304 18.3852 74.6304 18.1652C74.8304 17.9352 75.1004 17.7502 75.4404 17.6102C75.7804 17.4602 76.2004 17.3852 76.7004 17.3852C76.9704 17.3852 77.2704 17.4302 77.6004 17.5202C77.9404 17.6102 78.2554 17.7652 78.5454 17.9852L78.5304 17.4602H79.3254V20.1002H78.6804C78.6504 19.7502 78.5554 19.4252 78.3954 19.1252C78.2454 18.8252 78.0304 18.5802 77.7504 18.3902C77.4704 18.2002 77.1304 18.1052 76.7304 18.1052C76.3404 18.1052 76.0204 18.2052 75.7704 18.4052C75.5304 18.5952 75.4104 18.8352 75.4104 19.1252C75.4104 19.4152 75.5004 19.6502 75.6804 19.8302C75.8704 20.0102 76.1154 20.1652 76.4154 20.2952C76.7154 20.4252 77.0404 20.5552 77.3904 20.6852C77.8104 20.8552 78.2054 21.0402 78.5754 21.2402C78.9454 21.4402 79.2454 21.6902 79.4754 21.9902C79.7054 22.2902 79.8204 22.6702 79.8204 23.1302C79.8204 23.6302 79.6904 24.0502 79.4304 24.3902C79.1804 24.7202 78.8554 24.9652 78.4554 25.1252C78.0554 25.2852 77.6304 25.3652 77.1804 25.3652ZM90.7768 17.8652C90.7268 17.3552 90.5968 16.8952 90.3868 16.4852C90.1768 16.0752 89.8868 15.7502 89.5168 15.5102C89.1468 15.2602 88.6868 15.1402 88.1368 15.1502C87.5768 15.1502 87.1318 15.3052 86.8018 15.6152C86.4718 15.9252 86.3068 16.3002 86.3068 16.7402C86.3068 17.1302 86.4168 17.4602 86.6368 17.7302C86.8568 17.9902 87.1518 18.2252 87.5218 18.4352C87.9018 18.6452 88.3268 18.8552 88.7968 19.0652C89.1768 19.2252 89.5618 19.4052 89.9518 19.6052C90.3418 19.8052 90.6968 20.0352 91.0168 20.2952C91.3368 20.5452 91.5918 20.8502 91.7818 21.2102C91.9718 21.5602 92.0668 21.9752 92.0668 22.4552C92.0668 23.0152 91.9218 23.5152 91.6318 23.9552C91.3418 24.3952 90.9268 24.7402 90.3868 24.9902C89.8568 25.2402 89.2118 25.3652 88.4518 25.3652C88.0218 25.3652 87.5668 25.3002 87.0868 25.1702C86.6168 25.0402 86.1868 24.8552 85.7968 24.6152L85.8718 25.2452H84.9568L84.8968 21.9452H85.6168C85.6968 22.8152 86.0068 23.4752 86.5468 23.9252C87.0968 24.3652 87.7518 24.5852 88.5118 24.5852C88.8918 24.5852 89.2368 24.5152 89.5468 24.3752C89.8568 24.2352 90.1018 24.0352 90.2818 23.7752C90.4618 23.5152 90.5518 23.2102 90.5518 22.8602C90.5518 22.4502 90.4268 22.1052 90.1768 21.8252C89.9368 21.5452 89.6268 21.3052 89.2468 21.1052C88.8768 20.9052 88.4868 20.7152 88.0768 20.5352C87.6668 20.3552 87.2668 20.1652 86.8768 19.9652C86.4968 19.7652 86.1518 19.5352 85.8418 19.2752C85.5318 19.0152 85.2868 18.7102 85.1068 18.3602C84.9268 18.0002 84.8368 17.5802 84.8368 17.1002C84.8368 16.8202 84.8868 16.5252 84.9868 16.2152C85.0868 15.9052 85.2568 15.6102 85.4968 15.3302C85.7368 15.0502 86.0618 14.8252 86.4718 14.6552C86.8918 14.4752 87.4168 14.3852 88.0468 14.3852C88.4268 14.3852 88.8518 14.4402 89.3218 14.5502C89.8018 14.6602 90.2368 14.8552 90.6268 15.1352L90.5668 14.5052H91.4668V17.8652H90.7768ZM96.884 25.3652C96.174 25.3652 95.534 25.2052 94.964 24.8852C94.394 24.5652 93.939 24.1202 93.599 23.5502C93.269 22.9702 93.104 22.3052 93.104 21.5552C93.104 20.7452 93.269 20.0302 93.599 19.4102C93.939 18.7802 94.394 18.2852 94.964 17.9252C95.534 17.5652 96.169 17.3852 96.869 17.3852C97.579 17.3852 98.219 17.5502 98.789 17.8802C99.359 18.2002 99.809 18.6502 100.139 19.2302C100.479 19.8002 100.649 20.4602 100.649 21.2102C100.649 22.0002 100.484 22.7102 100.154 23.3402C99.824 23.9702 99.374 24.4652 98.804 24.8252C98.244 25.1852 97.604 25.3652 96.884 25.3652ZM96.989 24.6152C97.469 24.6052 97.844 24.4552 98.114 24.1652C98.394 23.8752 98.594 23.5052 98.714 23.0552C98.834 22.5952 98.894 22.1202 98.894 21.6302C98.894 21.2002 98.854 20.7802 98.774 20.3702C98.704 19.9502 98.589 19.5702 98.429 19.2302C98.269 18.8902 98.059 18.6202 97.799 18.4202C97.539 18.2102 97.224 18.1102 96.854 18.1202C96.384 18.1202 95.999 18.2652 95.699 18.5552C95.409 18.8452 95.194 19.2202 95.054 19.6802C94.924 20.1302 94.859 20.6102 94.859 21.1202C94.859 21.7102 94.934 22.2702 95.084 22.8002C95.234 23.3302 95.464 23.7652 95.774 24.1052C96.094 24.4452 96.499 24.6152 96.989 24.6152ZM101.521 24.4952C101.821 24.4952 102.031 24.4252 102.151 24.2852C102.271 24.1452 102.341 23.9502 102.361 23.7002C102.391 23.4502 102.406 23.1602 102.406 22.8302V16.0502C102.406 15.8802 102.406 15.7102 102.406 15.5402C102.416 15.3602 102.431 15.1702 102.451 14.9702C102.281 14.9802 102.101 14.9902 101.911 15.0002C101.721 15.0002 101.551 15.0052 101.401 15.0152V14.2202C101.851 14.2202 102.206 14.2002 102.466 14.1602C102.736 14.1102 102.941 14.0552 103.081 13.9952C103.231 13.9352 103.341 13.8702 103.411 13.8002H103.981V23.2652C103.981 23.4452 103.976 23.6302 103.966 23.8202C103.956 24.0002 103.941 24.1852 103.921 24.3752C104.081 24.3652 104.241 24.3602 104.401 24.3602C104.571 24.3502 104.726 24.3402 104.866 24.3302V25.1252H101.521V24.4952ZM109.428 25.3652C108.728 25.3652 108.098 25.2052 107.538 24.8852C106.988 24.5552 106.553 24.0952 106.233 23.5052C105.913 22.9052 105.753 22.2002 105.753 21.3902C105.753 20.6902 105.908 20.0352 106.218 19.4252C106.538 18.8152 106.983 18.3252 107.553 17.9552C108.123 17.5752 108.783 17.3852 109.533 17.3852C109.953 17.3852 110.348 17.4502 110.718 17.5802C111.098 17.7102 111.433 17.9152 111.723 18.1952C112.023 18.4652 112.258 18.8202 112.428 19.2602C112.598 19.6902 112.683 20.2152 112.683 20.8352L107.523 20.9252C107.523 21.6052 107.598 22.2102 107.748 22.7402C107.908 23.2702 108.163 23.6802 108.513 23.9702C108.863 24.2602 109.318 24.4052 109.878 24.4052C110.148 24.4052 110.433 24.3602 110.733 24.2702C111.043 24.1702 111.333 24.0302 111.603 23.8502C111.883 23.6702 112.118 23.4552 112.308 23.2052L112.773 23.6102C112.473 24.0602 112.128 24.4152 111.738 24.6752C111.348 24.9252 110.948 25.1002 110.538 25.2002C110.138 25.3102 109.768 25.3652 109.428 25.3652ZM107.583 20.1452H111.048C111.048 19.7652 110.993 19.4252 110.883 19.1252C110.783 18.8152 110.623 18.5702 110.403 18.3902C110.183 18.2102 109.903 18.1202 109.563 18.1202C109.033 18.1202 108.598 18.2902 108.258 18.6302C107.918 18.9602 107.693 19.4652 107.583 20.1452ZM117.734 25.1252V24.4652C118.064 24.4452 118.299 24.3752 118.439 24.2552C118.589 24.1352 118.684 23.9552 118.724 23.7152C118.764 23.4752 118.784 23.1702 118.784 22.8002V16.5602C118.784 16.3402 118.789 16.1302 118.799 15.9302C118.809 15.7202 118.819 15.5402 118.829 15.3902C118.659 15.4002 118.474 15.4102 118.274 15.4202C118.074 15.4302 117.894 15.4402 117.734 15.4502V14.6252C118.344 14.6152 118.959 14.6102 119.579 14.6102C120.199 14.6002 120.824 14.6002 121.454 14.6102C122.394 14.6102 123.169 14.7202 123.779 14.9402C124.389 15.1502 124.844 15.4652 125.144 15.8852C125.454 16.3052 125.604 16.8352 125.594 17.4752C125.604 17.8752 125.524 18.2752 125.354 18.6752C125.184 19.0652 124.899 19.4152 124.499 19.7252C124.099 20.0352 123.549 20.2702 122.849 20.4302C123.049 20.5502 123.229 20.7152 123.389 20.9252C123.549 21.1352 123.714 21.3702 123.884 21.6302L124.799 23.0402C124.989 23.3402 125.164 23.5952 125.324 23.8052C125.484 24.0152 125.664 24.1802 125.864 24.3002C126.064 24.4102 126.304 24.4652 126.584 24.4652V25.1252H124.499C124.239 24.9052 124.014 24.6702 123.824 24.4202C123.644 24.1602 123.449 23.8702 123.239 23.5502L122.204 21.8702C122.074 21.6702 121.934 21.4552 121.784 21.2252C121.644 20.9952 121.489 20.8002 121.319 20.6402C121.159 20.6402 120.999 20.6402 120.839 20.6402C120.689 20.6402 120.534 20.6402 120.374 20.6402V23.1152C120.374 23.3852 120.369 23.6302 120.359 23.8502C120.359 24.0602 120.349 24.2302 120.329 24.3602C120.449 24.3502 120.574 24.3452 120.704 24.3452C120.844 24.3352 120.979 24.3252 121.109 24.3152C121.249 24.3052 121.369 24.3002 121.469 24.3002V25.1252H117.734ZM121.244 19.9052C121.794 19.8952 122.264 19.8102 122.654 19.6502C123.044 19.4802 123.344 19.2252 123.554 18.8852C123.764 18.5352 123.869 18.0852 123.869 17.5352C123.869 17.1252 123.809 16.7802 123.689 16.5002C123.569 16.2202 123.399 15.9952 123.179 15.8252C122.959 15.6452 122.694 15.5202 122.384 15.4502C122.084 15.3702 121.759 15.3302 121.409 15.3302C121.089 15.3302 120.854 15.3902 120.704 15.5102C120.564 15.6302 120.474 15.8052 120.434 16.0352C120.394 16.2652 120.374 16.5602 120.374 16.9202V19.8602C120.524 19.8702 120.664 19.8852 120.794 19.9052C120.934 19.9152 121.084 19.9152 121.244 19.9052ZM130.614 25.3652C129.914 25.3652 129.284 25.2052 128.724 24.8852C128.174 24.5552 127.739 24.0952 127.419 23.5052C127.099 22.9052 126.939 22.2002 126.939 21.3902C126.939 20.6902 127.094 20.0352 127.404 19.4252C127.724 18.8152 128.169 18.3252 128.739 17.9552C129.309 17.5752 129.969 17.3852 130.719 17.3852C131.139 17.3852 131.534 17.4502 131.904 17.5802C132.284 17.7102 132.619 17.9152 132.909 18.1952C133.209 18.4652 133.444 18.8202 133.614 19.2602C133.784 19.6902 133.869 20.2152 133.869 20.8352L128.709 20.9252C128.709 21.6052 128.784 22.2102 128.934 22.7402C129.094 23.2702 129.349 23.6802 129.699 23.9702C130.049 24.2602 130.504 24.4052 131.064 24.4052C131.334 24.4052 131.619 24.3602 131.919 24.2702C132.229 24.1702 132.519 24.0302 132.789 23.8502C133.069 23.6702 133.304 23.4552 133.494 23.2052L133.959 23.6102C133.659 24.0602 133.314 24.4152 132.924 24.6752C132.534 24.9252 132.134 25.1002 131.724 25.2002C131.324 25.3102 130.954 25.3652 130.614 25.3652ZM128.769 20.1452H132.234C132.234 19.7652 132.179 19.4252 132.069 19.1252C131.969 18.8152 131.809 18.5702 131.589 18.3902C131.369 18.2102 131.089 18.1202 130.749 18.1202C130.219 18.1202 129.784 18.2902 129.444 18.6302C129.104 18.9602 128.879 19.4652 128.769 20.1452ZM137.77 25.1702L135.55 20.1752C135.4 19.8352 135.285 19.5552 135.205 19.3352C135.135 19.1152 135.085 18.9302 135.055 18.7802C135.035 18.6202 135.015 18.4852 134.995 18.3752L134.38 18.4202V17.6252H137.395V18.2402C137.125 18.2502 136.95 18.3252 136.87 18.4652C136.79 18.6052 136.77 18.7902 136.81 19.0202C136.86 19.2402 136.935 19.4802 137.035 19.7402L138.07 22.1402C138.15 22.3202 138.225 22.5052 138.295 22.6952C138.375 22.8852 138.455 23.0802 138.535 23.2802H138.55C138.61 23.1102 138.67 22.9352 138.73 22.7552C138.8 22.5652 138.865 22.3852 138.925 22.2152L139.945 19.4102C140.025 19.1702 140.105 18.9652 140.185 18.7952C140.275 18.6252 140.35 18.4802 140.41 18.3602L139.45 18.4202V17.6252H141.985V18.2402C141.765 18.2602 141.575 18.3552 141.415 18.5252C141.255 18.6952 141.105 18.9252 140.965 19.2152C140.835 19.5052 140.695 19.8302 140.545 20.1902L138.595 25.1702H137.77ZM142.52 24.4952C142.82 24.4952 143.03 24.4252 143.15 24.2852C143.27 24.1452 143.34 23.9502 143.36 23.7002C143.39 23.4502 143.405 23.1602 143.405 22.8302V19.7252C143.405 19.5552 143.41 19.3852 143.42 19.2152C143.43 19.0352 143.445 18.8452 143.465 18.6452C143.295 18.6552 143.115 18.6652 142.925 18.6752C142.735 18.6752 142.56 18.6802 142.4 18.6902V17.8952C142.85 17.8952 143.205 17.8752 143.465 17.8352C143.735 17.7852 143.94 17.7302 144.08 17.6702C144.23 17.6102 144.34 17.5452 144.41 17.4752H144.98V23.2652C144.98 23.4452 144.975 23.6302 144.965 23.8202C144.955 24.0002 144.94 24.1852 144.92 24.3752C145.08 24.3652 145.24 24.3602 145.4 24.3602C145.57 24.3502 145.725 24.3402 145.865 24.3302V25.1252H142.52V24.4952ZM144.11 16.0952C143.85 16.0952 143.63 16.0002 143.45 15.8102C143.27 15.6102 143.18 15.3702 143.18 15.0902C143.18 14.8102 143.275 14.5752 143.465 14.3852C143.655 14.1852 143.87 14.0852 144.11 14.0852C144.37 14.0852 144.585 14.1852 144.755 14.3852C144.935 14.5752 145.025 14.8102 145.025 15.0902C145.025 15.3702 144.935 15.6102 144.755 15.8102C144.585 16.0002 144.37 16.0952 144.11 16.0952ZM149.614 25.1702L147.394 20.1752C147.244 19.8352 147.129 19.5552 147.049 19.3352C146.979 19.1152 146.929 18.9302 146.899 18.7802C146.879 18.6202 146.859 18.4852 146.839 18.3752L146.224 18.4202V17.6252H149.239V18.2402C148.969 18.2502 148.794 18.3252 148.714 18.4652C148.634 18.6052 148.614 18.7902 148.654 19.0202C148.704 19.2402 148.779 19.4802 148.879 19.7402L149.914 22.1402C149.994 22.3202 150.069 22.5052 150.139 22.6952C150.219 22.8852 150.299 23.0802 150.379 23.2802H150.394C150.454 23.1102 150.514 22.9352 150.574 22.7552C150.644 22.5652 150.709 22.3852 150.769 22.2152L151.789 19.4102C151.869 19.1702 151.949 18.9652 152.029 18.7952C152.119 18.6252 152.194 18.4802 152.254 18.3602L151.294 18.4202V17.6252H153.829V18.2402C153.609 18.2602 153.419 18.3552 153.259 18.5252C153.099 18.6952 152.949 18.9252 152.809 19.2152C152.679 19.5052 152.539 19.8302 152.389 20.1902L150.439 25.1702H149.614ZM158.671 25.1252C158.651 24.9652 158.636 24.8252 158.626 24.7052C158.616 24.5852 158.601 24.4602 158.581 24.3302C158.241 24.6702 157.876 24.9302 157.486 25.1102C157.096 25.2802 156.691 25.3652 156.271 25.3652C155.551 25.3652 155.006 25.1902 154.636 24.8402C154.276 24.4802 154.096 24.0352 154.096 23.5052C154.096 23.0452 154.231 22.6452 154.501 22.3052C154.771 21.9652 155.126 21.6902 155.566 21.4802C156.006 21.2602 156.486 21.1002 157.006 21.0002C157.526 20.8902 158.036 20.8352 158.536 20.8352V19.9502C158.536 19.6302 158.506 19.3352 158.446 19.0652C158.386 18.7852 158.261 18.5602 158.071 18.3902C157.891 18.2102 157.606 18.1202 157.216 18.1202C156.956 18.1102 156.696 18.1602 156.436 18.2702C156.176 18.3702 155.976 18.5402 155.836 18.7802C155.916 18.8602 155.966 18.9552 155.986 19.0652C156.016 19.1652 156.031 19.2602 156.031 19.3502C156.031 19.4902 155.971 19.6502 155.851 19.8302C155.731 20.0002 155.526 20.0802 155.236 20.0702C154.996 20.0702 154.811 19.9902 154.681 19.8302C154.561 19.6602 154.501 19.4652 154.501 19.2452C154.501 18.8852 154.631 18.5652 154.891 18.2852C155.161 18.0052 155.526 17.7852 155.986 17.6252C156.446 17.4652 156.961 17.3852 157.531 17.3852C158.391 17.3852 159.031 17.6102 159.451 18.0602C159.881 18.5102 160.096 19.2202 160.096 20.1902C160.096 20.5502 160.096 20.8952 160.096 21.2252C160.096 21.5552 160.091 21.8852 160.081 22.2152C160.081 22.5452 160.081 22.8952 160.081 23.2652C160.081 23.4152 160.076 23.5852 160.066 23.7752C160.056 23.9652 160.041 24.1652 160.021 24.3752C160.191 24.3652 160.366 24.3552 160.546 24.3452C160.726 24.3352 160.896 24.3302 161.056 24.3302V25.1252H158.671ZM158.536 21.5252C158.216 21.5452 157.886 21.5902 157.546 21.6602C157.216 21.7302 156.916 21.8352 156.646 21.9752C156.376 22.1152 156.156 22.2952 155.986 22.5152C155.826 22.7352 155.746 23.0002 155.746 23.3102C155.766 23.6502 155.876 23.9002 156.076 24.0602C156.286 24.2202 156.531 24.3002 156.811 24.3002C157.161 24.3002 157.471 24.2352 157.741 24.1052C158.011 23.9652 158.276 23.7752 158.536 23.5352C158.526 23.4252 158.521 23.3152 158.521 23.2052C158.521 23.0852 158.521 22.9602 158.521 22.8302C158.521 22.7402 158.521 22.5752 158.521 22.3352C158.531 22.0852 158.536 21.8152 158.536 21.5252ZM161.694 24.4952C161.994 24.4952 162.204 24.4252 162.324 24.2852C162.444 24.1452 162.514 23.9502 162.534 23.7002C162.564 23.4502 162.579 23.1602 162.579 22.8302V16.0502C162.579 15.8802 162.579 15.7102 162.579 15.5402C162.589 15.3602 162.604 15.1702 162.624 14.9702C162.454 14.9802 162.274 14.9902 162.084 15.0002C161.894 15.0002 161.724 15.0052 161.574 15.0152V14.2202C162.024 14.2202 162.379 14.2002 162.639 14.1602C162.909 14.1102 163.114 14.0552 163.254 13.9952C163.404 13.9352 163.514 13.8702 163.584 13.8002H164.154V23.2652C164.154 23.4452 164.149 23.6302 164.139 23.8202C164.129 24.0002 164.114 24.1852 164.094 24.3752C164.254 24.3652 164.414 24.3602 164.574 24.3602C164.744 24.3502 164.899 24.3402 165.039 24.3302V25.1252H161.694V24.4952Z" fill="#0F283D"/>
</g>
</g>
</g>
</g>
</g>
</svg>
